# AST/ASF file generated using VICON BodyLanguage
# -----------------------------------------------
:version 1.10
:name VICON
:units
  mass 1.0
  length 0.45
  angle deg
:documentation
   .ast/.asf automatically generated from VICON data using
   VICON BodyBuilder and BodyLanguage model FoxedUp or BRILLIANT.MOD
:root
   order TX TY TZ RX RY RZ
   axis XYZ
   position 0 0 0  
   orientation 0 0 0 
:bonedata
  begin
     id 1 
     name lhipjoint
     direction 0.692814 -0.645514 0.321437 
     length 2.38754 
     axis 0 0 0  XYZ
  end
  begin
     id 2 
     name lfemur
     direction 0.34202 -0.939693 0  
     length 6.41921  
     axis 0 0 20  XYZ
    dof rx ry rz
    limits (-160.0 20.0)
           (-70.0 70.0)
           (-60.0 70.0)
  end
  begin
     id 3 
     name ltibia
     direction 0.34202 -0.939693 0   
     length 6.98247   
     axis 0 0 20   XYZ
    dof rx
    limits (-10.0 170.0)
  end
  begin
     id 4 
     name lfoot
     direction 0.0947186 -0.260237 0.960888   
     length 1.83034   
     axis -90 7.62852e-016 20   XYZ
    dof rx rz
    limits (-45.0 90.0)
           (-70.0 20.0)
  end
  begin
     id 5 
     name ltoes
     direction 1.53538e-011 -4.21952e-011 1   
     length 0.920499   
     axis -90 7.62852e-016 20   XYZ
    dof rx
    limits (-90.0 20.0)
  end
  begin
     id 6 
     name rhipjoint
     direction -0.631686 -0.693949 0.345555   
     length 2.2209  
     axis 0 0 0  XYZ 
  end
  begin
     id 7 
     name rfemur
     direction -0.34202 -0.939693 0   
     length 6.49542   
     axis 0 0 -20   XYZ
    dof rx ry rz
    limits (-160.0 20.0)
           (-70.0 70.0)
           (-70.0 60.0)
  end
  begin
     id 8 
     name rtibia
     direction -0.34202 -0.939693 0   
     length 7.21712   
     axis 0 0 -20   XYZ
    dof rx
    limits (-10.0 170.0)
 end
 begin
     id 9 
     name rfoot
     direction -0.0825378 -0.226771 0.970444   
     length 1.89724  
     axis -90 -7.62852e-016 -20   XYZ
    dof rx rz
    limits (-45.0 90.0)
           (-20.0 70.0)
  end
  begin
     id 10 
     name rtoes
     direction -1.53515e-011 -4.22016e-011 1   
     length 0.955868   
     axis -90 -7.62852e-016 -20   XYZ
    dof rx
    limits (-90.0 20.0)
  end
  begin
     id 11 
     name lowerback
     direction -0.0104711 0.984802 -0.173368   
     length 1.84931   
     axis 0 0 0   XYZ
    dof rx ry rz
    limits (-20.0 45.0)
           (-30.0 30.0)
           (-30.0 30.0)
  end
  begin
     id 12 
     name upperback
     direction -0.00286433 0.999996 -0.000382853   
     length 1.85768   
     axis 0 0 0   XYZ
    dof rx ry rz
    limits (-20.0 45.0)
           (-30.0 30.0)
           (-30.0 30.0)
  end
  begin
     id 13 
     name thorax
     direction 0.00167534 0.996793 0.0800069   
     length 1.92   
     axis 0 0 0   XYZ
    dof rx ry rz
    limits (-20.0 45.0)
           (-30.0 30.0)
           (-30.0 30.0)
  end
  begin
     id 14 
     name lowerneck
     direction -0.0672491 0.995415 0.068018   
     length 1.58923   
     axis 0 0 0   XYZ
    dof rx ry rz
    limits (-20.0 45.0)
           (-30.0 30.0)
           (-30.0 30.0)
  end
  begin
     id 15 
     name upperneck
     direction 0.0958019 0.982476 -0.159884   
     length 1.60189   
     axis 0 0 0   XYZ
    dof rx ry rz
    limits (-20.0 45.0)
           (-30.0 30.0)
           (-30.0 30.0)
  end
  begin
     id 16
     name head
     direction 0.032989 0.997338 -0.0650226  
     length 1.61681  
     axis 0 0 0   XYZ
    dof rx ry rz
    limits (-20.0 45.0)
           (-30.0 30.0)
           (-30.0 30.0)
  end
  begin
     id 17 
     name lclavicle
     direction 0.954279 0.298875 -0.00496069  
     length 2.99449  
     axis 0 0 0   XYZ
    dof ry rz
    limits (-20.0 10.0)
           (0.0 20.0)
  end
  begin
     id 18 
     name lhumerus
     direction 1 -4.48985e-011 -4.2057e-027   
     length 4.79185   
     axis 180 -30 -90   XYZ
    dof rx ry rz
    limits (-60.0 90.0)
           (-90.0 90.0)
           (-90.0 90.0)
  end
  begin
     id 19
     name lradius
     direction 1 -4.48945e-011 1.15441e-028   
     length 2.65553   
     axis 180 -30 -90   XYZ
    dof rx
    limits (-10.0 170.0)
  end
  begin
     id 20
     name lwrist
     direction 1 -4.4899e-011 4.8894e-028   
     length 1.32777   
     axis -2.56392e-016 90 90   XYZ
    dof ry
    limits (-180.0 0.0)
 end
  begin
     id 21 
     name lhand
     direction 1 -4.48908e-011 9.7788e-028   
     length 0.743904   
     axis -6.23971e-016 90 90   XYZ
    dof rx rz
    limits (-90.0 90.0)
           (-45.0 45.0)
  end
  begin
     id 22 
     name lfingers
     direction 1 -4.49068e-011 1.95576e-027   
     length 0.599754   
     axis -1.24794e-015 90 90   XYZ
    dof rx
    limits (0.0 90.0)
  end
  begin
     id 23
     name lthumb
     direction 0.707107 -6.34883e-011 0.707107   
     length 0.861131   
     axis -90 45 2.85299e-015   XYZ
    dof rx rz
    limits (-45.0 45.0)
           (-45.0 45.0)
  end
  begin
     id 24 
     name rclavicle
     direction -0.957921 0.286916 0.00811568   
     length 3.06817  
     axis 0 0 0   XYZ 
    dof ry rz
    limits (-10.0 20.0)
           (-20.0 0.0)
  end
  begin
     id 25 
     name rhumerus
     direction -1 -4.48971e-011 -3.07942e-027  
     length 4.77254   
     axis 180 30 90   XYZ
    dof rx ry rz
    limits (-90.0 60.0)
           (-90.0 90.0)
           (-90.0 90.0)
  end
  begin
     id 26 
     name rradius
     direction -1 -4.48957e-011 -9.6815e-028   
     length 2.75995   
     axis 180 30 90   XYZ
    dof rx
    limits (-10.0 170.0)
  end
  begin
     id 27 
     name rwrist
     direction -1 -4.48979e-011 4.8894e-028   
     length 1.37997   
     axis -2.56392e-016 -90 -90   XYZ
    dof ry
    limits (-180.0 0.0)
  end
  begin
     id 28
     name rhand
     direction -1 -4.48906e-011 9.7788e-028   
     length 0.701619   
     axis -6.23971e-016 -90 -90   XYZ
    dof rx rz
    limits (-90.0 90.0)
           (-45.0 45.0)
  end
  begin
     id 29
     name rfingers
     direction -1 -4.49018e-011 1.95576e-027   
     length 0.565663   
     axis -1.24794e-015 -90 -90   XYZ
    dof rx
    limits (0.0 90.0)
  end
  begin
     id 30
     name rthumb
     direction -0.707107 -6.34881e-011 0.707107   
     length 0.812183   
     axis -90 -45 -2.85299e-015   XYZ
    dof rx rz
    limits (-45.0 45.0)
           (-45.0 45.0)
  end
:hierarchy
  begin
    root lhipjoint rhipjoint lowerback
    lhipjoint lfemur
    lfemur ltibia
    ltibia lfoot
    lfoot ltoes
    rhipjoint rfemur
    rfemur rtibia
    rtibia rfoot
    rfoot rtoes
    lowerback upperback
    upperback thorax
    thorax lowerneck lclavicle rclavicle
    lowerneck upperneck
    upperneck head
    lclavicle lhumerus
    lhumerus lradius
    lradius lwrist
    lwrist lhand lthumb
    lhand lfingers
    rclavicle rhumerus
    rhumerus rradius
    rradius rwrist
    rwrist rhand rthumb
    rhand rfingers
  end

#!OML:ASF F:\VICON\USERDATA\INSTALL\rory3\rory3.ASF
:FULLY-SPECIFIED
:DEGREES
1285
root 0.267059 15.6683 -1.27118 0.12668 2.00986 0.0738711
lowerback 15.049 1.06654 -1.71604
upperback 1.44054 1.12319 -0.0438283
thorax -6.94278 0.595733 0.692208
lowerneck -10.6431 -9.10486 -13.752
upperneck 22.4708 -11.94 8.21325
head 10.2706 -5.86394 3.6241
rclavicle 3.64024e-015 1.30204e-014
rhumerus 18.7506 22.1497 -75.1553
rradius 18.494
rwrist 53.5237
rhand -26.5357 19.5265
rfingers 7.12502
rthumb 0.0283739 -10.4532
lclavicle 3.64024e-015 1.30204e-014
lhumerus 17.3898 -9.81956 83.8817
lradius 13.6166
lwrist -48.489
lhand -27.4754 5.11666
lfingers 7.12502
lthumb -0.87926 35.0946
rfemur -17.2802 4.73475 15.8823
rtibia 37.1022
rfoot -14.9795 -10.8681
rtoes -13.0853
lfemur -16.2409 -7.27128 -16.3136
ltibia 32.7207
lfoot -12.1877 1.94251
ltoes -11.4628
1286
root 0.265629 15.6818 -1.26246 0.14603 1.97578 0.0769284
lowerback 14.9924 1.07826 -1.76192
upperback 1.35655 1.13169 -0.0414582
thorax -7.0025 0.602103 0.718915
lowerneck -10.6867 -9.07684 -13.6695
upperneck 22.5554 -11.9041 8.15661
head 10.2952 -5.84555 3.59522
rclavicle 5.56597e-015 -1.96797e-014
rhumerus 18.4864 22.0947 -75.3403
rradius 18.4884
rwrist 53.7985
rhand -26.5589 19.5781
rfingers 7.12502
rthumb 0.00596394 -10.4016
lclavicle 5.56597e-015 -1.96797e-014
lhumerus 17.2352 -10.3072 83.6606
lradius 13.665
lwrist -47.9698
lhand -27.3168 5.24116
lfingers 7.12502
lthumb -0.726071 35.2197
rfemur -17.0647 4.87535 15.8923
rtibia 36.7395
rfoot -14.8602 -10.9592
rtoes -12.9702
lfemur -15.9647 -7.37426 -16.3186
ltibia 32.2502
lfoot -12.0423 2.12691
ltoes -11.4691
1287
root 0.26345 15.6957 -1.25306 0.119572 1.92706 0.035551
lowerback 14.9806 1.08647 -1.77722
upperback 1.28106 1.14133 -0.0178776
thorax -7.07791 0.608496 0.75002
lowerneck -10.7625 -9.0389 -13.6457
upperneck 22.6874 -11.8407 8.09861
head 10.3441 -5.81862 3.57823
rclavicle 1.54058e-015 1.19271e-015
rhumerus 18.2499 22.3685 -75.3699
rradius 18.5332
rwrist 53.7986
rhand -26.5652 19.4983
rfingers 7.12502
rthumb -0.000111557 -10.4814
lclavicle 1.54058e-015 1.19271e-015
lhumerus 17.0266 -10.4282 83.6007
lradius 13.7074
lwrist -47.8621
lhand -27.3411 5.34846
lfingers 7.12502
lthumb -0.749487 35.3269
rfemur -16.7965 5.07205 15.9577
rtibia 36.3653
rfoot -14.7578 -11.0371
rtoes -12.5973
lfemur -15.6431 -7.45241 -16.2729
ltibia 31.811
lfoot -11.9462 2.2607
ltoes -11.3427
1288
root 0.262109 15.7094 -1.24231 0.163159 1.8998 0.0776357
lowerback 14.8476 1.10197 -1.84088
upperback 1.21487 1.15185 -0.0412817
thorax -7.07598 0.615656 0.760336
lowerneck -10.8857 -9.01516 -13.5945
upperneck 22.8545 -11.8002 8.04518
head 10.4161 -5.79814 3.55332
rclavicle 3.93842e-015 -1.98785e-015
rhumerus 18.1276 22.8267 -75.2084
rradius 18.5973
rwrist 53.4976
rhand -26.5923 19.5349
rfingers 7.12502
rthumb -0.026291 -10.4449
lclavicle 3.93842e-015 -1.98785e-015
lhumerus 16.8573 -11.0273 83.3408
lradius 13.8287
lwrist -47.3337
lhand -27.3466 5.42867
lfingers 7.12502
lthumb -0.754821 35.4071
rfemur -16.5923 5.2007 15.9219
rtibia 35.9688
rfoot -14.6632 -11.128
rtoes -12.4446
lfemur -15.4053 -7.50155 -16.3235
ltibia 31.3881
lfoot -11.8909 2.38165
ltoes -11.994
1289
root 0.262598 15.7238 -1.22991 0.208254 1.88802 0.0397754
lowerback 14.6559 1.10852 -1.79171
upperback 1.16408 1.1723 -0.0428228
thorax -7.02327 0.624206 0.729127
lowerneck -10.9661 -8.9898 -13.5471
upperneck 22.9537 -11.7667 8.0273
head 10.4588 -5.77865 3.54209
rclavicle -3.31722e-015 -1.19271e-014
rhumerus 18.0573 23.3433 -74.9652
rradius 18.6457
rwrist 53.0465
rhand -26.6272 19.7343
rfingers 7.12502
rthumb -0.0600009 -10.2454
lclavicle -3.31722e-015 -1.19271e-014
lhumerus 16.7178 -11.3954 83.202
lradius 13.8898
lwrist -47.1005
lhand -27.2553 5.46886
lfingers 7.12502
lthumb -0.666642 35.4476
rfemur -16.3745 5.3038 15.9729
rtibia 35.5558
rfoot -14.5381 -11.2224
rtoes -12.4775
lfemur -15.1735 -7.61073 -16.2915
ltibia 30.969
lfoot -11.7901 2.57226
ltoes -12.3792
1290
root 0.26274 15.7389 -1.21683 0.194459 1.92725 -0.0794161
lowerback 14.5458 1.09214 -1.64161
upperback 1.1035 1.17784 -0.0306387
thorax -7.02412 0.622973 0.657123
lowerneck -11.022 -8.9573 -13.4838
upperneck 23.0471 -11.7321 8.01964
head 10.494 -5.75711 3.5332
rclavicle 6.36111e-015 1.40143e-014
rhumerus 17.8689 23.5991 -74.9162
rradius 18.6985
rwrist 52.85
rhand -26.5709 19.7081
rfingers 7.12502
rthumb -0.00566612 -10.2717
lclavicle 6.36111e-015 1.40143e-014
lhumerus 16.5389 -11.7949 83.0558
lradius 13.9656
lwrist -46.7291
lhand -27.2862 5.34043
lfingers 7.12502
lthumb -0.696465 35.319
rfemur -16.0692 5.39217 16.1196
rtibia 35.1407
rfoot -14.4491 -11.3108
rtoes -12.3746
lfemur -14.8881 -7.75422 -16.1715
ltibia 30.546
lfoot -11.6321 2.68525
ltoes -12.1626
